<?xml version="1.0" standalone="no"?>
<!DOCTYPE svg PUBLIC "-//W3C//DTD SVG 1.1//EN" "http://www.w3.org/Graphics/SVG/1.1/DTD/svg11.dtd" >
<!--
2013-9-30: Created.
-->
<svg>
<metadata>
Created by iconfont
</metadata>
<defs>

<font id="iconfont" horiz-adv-x="1024" >
  <font-face
    font-family="iconfont"
    font-weight="500"
    font-stretch="normal"
    units-per-em="1024"
    ascent="896"
    descent="-128"
  />
    <missing-glyph />
    
    <glyph glyph-name="volumedown" unicode="&#58949;" d="M94.55402464 549.70089876l220.07840996 0 277.02428633 277.02428636 0-885.47798662-277.02428633 277.02428635-220.07840996 0 0 331.40179753zM840.20806908 384q0-152.74861228-139.82394216-222.67439155l0 445.32116543q139.82394217-69.89816289 139.82394216-222.67439155z"  horiz-adv-x="1024" />

    
    <glyph glyph-name="volumemute" unicode="&#58951;" d="M93.84076124 560.74762534l237.519351 0 292.75298392 295.49257212 0-944.50985239-292.75298392 295.4925721-237.519351 0 0 353.4952507z"  horiz-adv-x="1024" />

    
    <glyph glyph-name="volumeoff" unicode="&#58956;" d="M529.03678103 771.91335355l0-204.18020586-102.09010237 102.09010237zM154.7225365 819.5586275000001l809.87287202-809.87287205-61.24438293-61.24438295-99.81551882 99.81551881q-83.94182622-65.79355008-176.95779163-88.46679718l0 99.81551881q56.719412 15.87369257 108.88965685 56.71941201l-206.43059209 206.43059212 0-326.66897062-242.7271444 242.72714438-192.83148308 0 0 290.37241834 229.12803537 0-229.12803537 229.12803538zM867.05447328 384q0 115.68921137-66.93084242 204.18020586t-173.54591572 120.23837851l0 99.81551879q147.46079273-31.77158249 242.72714439-150.84847129t95.29054899-273.36143455q0-108.88965687-49.91985864-201.90562115l-72.59310456 74.86768813q24.94783064 61.24438293 24.94783063 127.03793302zM746.81609477 384q0-20.42285972-2.27458357-29.49699778l-117.96379494 117.96379495 0 106.6150733q120.23837851-58.99399671 120.23837851-195.10606779z"  horiz-adv-x="1024" />

    
    <glyph glyph-name="volumeup" unicode="&#58969;" d="M645.34467219 821.78376781q152.17924087-32.78820909 250.49392379-155.67531837t98.33965448-282.10844944-98.33965448-282.10844944-250.49392379-155.67531837l0 103.00941423q110.02654076 32.78820909 179.09903524 124.08576426t69.07249448 210.7135609-69.07249448 210.71356091-179.09903524 124.08576428l0 103.00941419zM769.43043646 384q0-140.467383-124.08576427-201.34906871l0 402.67316466q124.08576427-60.8816857 124.08576427-201.3490687zM95.18699799 533.83187522l199.00170188 0 250.49392378 250.49392376 0-800.67656955-250.49392378 250.49392377-199.00170188 0 0 299.66375044z"  horiz-adv-x="1024" />

    
    <glyph glyph-name="emoticon" unicode="&#59367;" d="M512 149.333333C611.413333 149.333333 695.466667 211.626667 730.026667 298.666667L293.973333 298.666667C328.106667 211.626667 412.586667 149.333333 512 149.333333M362.666667 426.666667C398.08 426.666667 426.666667 455.253333 426.666667 490.666667 426.666667 526.08 398.08 554.666667 362.666667 554.666667 327.253333 554.666667 298.666667 526.08 298.666667 490.666667 298.666667 455.253333 327.253333 426.666667 362.666667 426.666667M661.333333 426.666667C696.746667 426.666667 725.333333 455.253333 725.333333 490.666667 725.333333 526.08 696.746667 554.666667 661.333333 554.666667 625.92 554.666667 597.333333 526.08 597.333333 490.666667 597.333333 455.253333 625.92 426.666667 661.333333 426.666667M512 42.666667C323.413333 42.666667 170.666667 195.413333 170.666667 384 170.666667 572.586667 323.413333 725.333333 512 725.333333 700.586667 725.333333 853.333333 572.586667 853.333333 384 853.333333 195.413333 700.586667 42.666667 512 42.666667M512 810.666667C276.053333 810.666667 85.333333 618.666667 85.333333 384 85.333333 148.48 276.48-42.666667 512-42.666667 747.52-42.666667 938.666667 148.48 938.666667 384 938.666667 619.52 747.52 810.666667 512 810.666667Z"  horiz-adv-x="1024" />

    
    <glyph glyph-name="keyboard" unicode="&#59642;" d="M830.57777813 475.02222187L739.5555552 475.02222187 739.5555552 566.0444448000001 830.57777813 566.0444448000001M830.57777813 338.48888853000005L739.5555552 338.48888853000005 739.5555552 429.51111147 830.57777813 429.51111147M694.0444448 475.02222187L603.02222187 475.02222187 603.02222187 566.0444448000001 694.0444448 566.0444448000001M694.0444448 338.48888853000005L603.02222187 338.48888853000005 603.02222187 429.51111147 694.0444448 429.51111147M694.0444448 156.44444480000004L329.9555552 156.44444480000004 329.9555552 247.46666667 694.0444448 247.46666667M284.4444448 475.02222187L193.42222187 475.02222187 193.42222187 566.0444448000001 284.4444448 566.0444448000001M284.4444448 338.48888853000005L193.42222187 338.48888853000005 193.42222187 429.51111147 284.4444448 429.51111147M329.9555552 429.51111147L420.97777813 429.51111147 420.97777813 338.48888853000005 329.9555552 338.48888853000005M329.9555552 566.0444448000001L420.97777813 566.0444448000001 420.97777813 475.02222187 329.9555552 475.02222187M466.48888853 429.51111147L557.51111147 429.51111147 557.51111147 338.48888853000005 466.48888853 338.48888853000005M466.48888853 566.0444448000001L557.51111147 566.0444448000001 557.51111147 475.02222187 466.48888853 475.02222187M876.08888853 702.5777781300001L147.91111147 702.5777781300001C97.39377813 702.5777781300001 56.88888853 662.07288853 56.88888853 611.5555552000001L56.88888853 156.44444480000004C56.88888853 106.38222186999997 97.84888853 65.42222187000004 147.91111147 65.42222187000004L876.08888853 65.42222187000004C926.15111147 65.42222187000004 967.11111147 106.38222186999997 967.11111147 156.44444480000004L967.11111147 611.5555552000001C967.11111147 662.07288853 926.15111147 702.5777781300001 876.08888853 702.5777781300001Z"  horiz-adv-x="1024" />

    
    <glyph glyph-name="qrcode" unicode="&#59026;" d="M370.88000001-74.63999998999998L159.2-74.63999998999998c-58.35312 0-105.84 47.48688001-105.83999999 105.83999999l0 211.68000001c0 58.35312 47.48688001 105.84 105.83999999 105.83999999l211.68000001 0c58.35312 0 105.84-47.48688001 105.83999999-105.83999999l0-211.68000001C476.72-27.153119999999944 429.23312-74.63999998999998 370.88000001-74.63999998999998zM159.2 278.15999999999997c-19.43928 0-35.28-15.80544-35.28-35.27999999l0-211.68000001c0-19.47456 15.84072-35.28 35.28-35.28l211.68000001 0c19.43928 0 35.28 15.80544 35.27999999 35.28l0 211.68000001c0 19.47456-15.84072 35.28-35.27999999 35.27999999L159.2 278.15999999999997zM758.96-39.360000000000014c-19.50983999 0-35.28 15.77016-35.28 35.28l0 70.56c0 19.50983999 15.77016 35.28 35.28 35.28s35.28-15.77016 35.28-35.28l0-70.56C794.24-23.58983999999998 778.46984-39.360000000000014 758.96-39.360000000000014zM900.08-39.360000000000014c-19.50983999 0-35.28 15.77016-35.28 35.28l0 105.84c0 19.50983999 15.77016 35.28 35.28 35.28s35.28-15.77016 35.28-35.28l0-105.84C935.36-23.58983999999998 919.58984-39.360000000000014 900.08-39.360000000000014zM900.08 207.59999999000001c-19.50983999 0-35.28 15.77016-35.28 35.28000002l0 70.55999999c0 19.50983999 15.77016 35.28 35.28 35.28s35.28-15.77016 35.28-35.28l0-70.55999999C935.36 223.37016000000006 919.58984 207.59999999000001 900.08 207.59999999000001zM758.96 137.03999999999996c-19.50983999 0-35.28 15.77016-35.28 35.28l0 141.12c0 19.50983999 15.77016 35.28 35.28 35.28s35.28-15.77016 35.28-35.28l0-141.12C794.24 152.81016 778.46984 137.03999999999996 758.96 137.03999999999996zM617.84-39.360000000000014c-19.50983999 0-35.28 15.77016-35.28 35.28l0 141.12c0 19.50983999 15.77016 35.28 35.28 35.28s35.28-15.77016 35.27999999-35.28l0-141.12C653.11999999-23.58983999999998 637.34984-39.360000000000014 617.84-39.360000000000014zM617.84 242.88000001c-19.50983999 0-35.28 15.77016-35.28 35.27999999l0 35.28c0 19.50983999 15.77016 35.28 35.28 35.28s35.28-15.77016 35.27999999-35.28l0-35.28C653.11999999 258.65016 637.34984 242.88000001 617.84 242.88000001zM300.32 66.48000000000002L229.76 66.48000000000002c-19.47456 0-35.28 15.77016-35.28 35.28l0 70.56c0 19.50983999 15.80544 35.28 35.28 35.27999999l70.56 0c19.47456 0 35.28-15.77016 35.27999999-35.27999999l0-70.56C335.59999999 82.25016000000005 319.79456 66.48000000000002 300.32 66.48000000000002zM370.88000001 419.28L159.2 419.28c-58.35312 0-105.84 47.48688001-105.83999999 105.83999999L53.36000001 736.8c0 58.35312 47.48688001 105.84 105.83999999 105.83999999l211.68000001 0c58.35312 0 105.84-47.48688001 105.83999999-105.83999999l0-211.68000001C476.72 466.76688 429.23312 419.28 370.88000001 419.28zM159.2 772.08C139.76072 772.08 123.92 756.23928 123.92 736.8l0-211.68000001c0-19.43928 15.84072-35.28 35.28-35.27999999l211.68000001 0c19.43928 0 35.28 15.84072 35.27999999 35.27999999L406.16 736.8c0 19.43928-15.84072 35.28-35.27999999 35.28L159.2 772.08zM300.32 560.40000001L229.76 560.40000001c-19.47456 0-35.28 15.80544-35.28 35.27999999L194.48 666.24c0 19.47456 15.80544 35.28 35.28 35.28l70.56 0c19.47456 0 35.28-15.80544 35.27999999-35.28l0-70.56C335.59999999 576.20544 319.79456 560.40000001 300.32 560.40000001zM864.8 419.28l-211.68000001 0c-58.35312 0-105.84 47.48688001-105.83999999 105.83999999L547.28 736.8c0 58.35312 47.48688001 105.84 105.83999999 105.83999999l211.68000001 0c58.35312 0 105.84-47.48688001 105.83999999-105.83999999l0-211.68000001C970.63999999 466.76688 923.15312 419.28 864.8 419.28zM653.11999999 772.08c-19.47456 0-35.28-15.84072-35.27999999-35.28l0-211.68000001c0-19.43928 15.80544-35.28 35.27999999-35.27999999l211.68000001 0c19.47456 0 35.28 15.84072 35.28 35.27999999L900.08 736.8c0 19.43928-15.80544 35.28-35.28 35.28L653.11999999 772.08zM794.24 560.40000001l-70.56 0c-19.50983999 0-35.28 15.80544-35.27999999 35.27999999L688.40000001 666.24c0 19.47456 15.77016 35.28 35.27999999 35.28l70.56 0c19.50983999 0 35.28-15.80544 35.28-35.28l0-70.56C829.52 576.20544 813.74984 560.40000001 794.24 560.40000001z"  horiz-adv-x="1024" />

    
    <glyph glyph-name="danmaku_hidden" unicode="&#58946;" d="M768 501.33333333H358.4v69.33333334h409.6v-69.33333334zM599.46666667 77.86666666999997H121.06666667c-10.24 0-18.66666667 8.42666667-18.66666667 18.66666666v574.93333334c0 10.24 8.42666667 18.66666667 18.66666667 18.66666666h781.86666666c10.24 0 18.66666667-8.42666667 18.66666667-18.66666666v-196.26666667c24.85333333-7.89333333 48.10666667-19.2 69.33333333-33.38666667V671.46666667c0 48.53333333-39.46666667 88-88 88h-781.86666666C72.53333333 759.46666667 33.06666667 720 33.06666667 671.46666667v-574.93333334c0-48.53333333 39.46666667-88 88-88h534.29333333c-22.18666667 19.84-41.17333333 43.30666667-55.89333333 69.33333334zM358.4 265.6v-69.33333333h205.86666667c-0.32 5.65333333-0.53333333 11.30666667-0.53333334 17.06666666 0 17.92 1.70666667 35.30666667 5.01333334 52.26666667H358.4z m296.96 152.53333333H424.53333333v-69.33333333h174.93333334c14.72 26.02666667 33.70666667 49.49333333 55.89333333 69.33333333zM355.2 418.13333333h-69.33333333v-69.33333333h69.33333333v69.33333333z m-66.13333333 152.53333334h-69.33333334v-69.33333334h69.33333334v69.33333334z m-69.33333334-374.4h69.33333334v69.33333333h-69.33333334v-69.33333333z m824.32 17.06666666c0-113.38666667-91.94666667-205.33333333-205.33333333-205.33333333S633.38666667 99.94666667000001 633.38666667 213.33333332999996 725.33333333 418.66666667 838.72 418.66666667s205.33333333-91.94666667 205.33333333-205.33333334z m-322.88-68.48l186.02666667 186.02666667c-20.58666667 12.05333333-44.05333333 18.45333333-68.48 18.45333333-36.37333333 0-70.50666667-14.18666667-96.21333333-39.78666666-25.70666667-25.70666667-39.78666667-59.84-39.78666667-96.21333334 0-24.42666667 6.4-47.89333333 18.45333333-68.48zM974.72 213.33333332999996c0 24.42666667-6.4 47.89333333-18.45333333 68.48L770.13333333 95.78666667000005c20.58666667-12.05333333 44.05333333-18.45333333 68.48-18.45333334 36.37333333 0 70.50666667 14.18666667 96.21333334 39.78666667 25.70666667 25.70666667 39.89333333 59.84 39.89333333 96.21333333z"  horiz-adv-x="1024" />

    
    <glyph glyph-name="danmaku_show" unicode="&#58947;" d="M902.93333333 759.46666667h-781.86666666C72.53333333 759.46666667 33.06666667 720 33.06666667 671.46666667v-574.93333334c0-48.53333333 39.46666667-88 88-88h781.86666666c48.53333333 0 88 39.46666667 88 88v574.93333334c0 48.53333333-39.46666667 88-88 88zM921.6 96.53333333c0-10.24-8.42666667-18.66666667-18.66666667-18.66666666h-781.86666666c-10.24 0-18.66666667 8.42666667-18.66666667 18.66666666v574.93333334c0 10.24 8.42666667 18.66666667 18.66666667 18.66666666h781.86666666c10.24 0 18.66666667-8.42666667 18.66666667-18.66666666v-574.93333334zM289.06666667 501.33333333h-69.33333334v69.33333334h69.33333334v-69.33333334z m478.93333333 0H358.4v69.33333334h409.6v-69.33333334z m-482.13333333-83.2h69.33333333v-69.33333333h-69.33333333v69.33333333z m138.66666666 0h409.6v-69.33333333H424.53333333v69.33333333zM219.73333333 265.6h69.33333334v-69.33333333h-69.33333334v69.33333333z m138.66666667 0h409.6v-69.33333333H358.4v69.33333333z"  horiz-adv-x="1024" />

    
    <glyph glyph-name="loop" unicode="&#58942;" d="M339.83955031 137.50156405999996h492.54125438c33.77499 0 61.56774094 27.79258219 61.56774187 61.56757313v123.13548187 0.00759375c0 33.77515875 27.79258219 61.56774094 61.56774094 61.56774188 33.77499 0 61.56774094-27.79258219 61.56774094-61.56774188v-123.14307562c0-101.32480219-83.37757781-184.7033925-184.7033925-184.7033925h-492.54125438v-80.6538375c0.08352938-0.86516438 0.12520969-1.73370375 0.12520969-2.60291813 0-14.86101562-12.22873594-27.0897525-27.0897525-27.08975156a27.09532125 27.09532125 0 0 0-17.36420438 6.29695125l-249.9644925 142.83716719 6.77231157-1.23134531c-8.61148219 4.76473219-13.97492719 13.86169781-13.97492719 23.70351187 0 9.84198281 5.363445 18.93894844 13.97492719 23.70368156l246.27062718 144.68409844a27.0924525 27.0924525 0 0 0 14.16223594 3.99676594c14.86101562 0 27.08992125-12.22873594 27.08992125-27.0897525 0-0.10091063-0.000675-0.20182125-0.0016875-0.30273094v-83.11635844zM709.24633531 753.1789771900001v83.73211406C709.28177188 851.74763906 721.49953906 863.93621344 736.33608687 863.93621344c4.75494469 0 9.427035-1.25193187 13.54496063-3.62940375l249.96449344-144.06851157v0.6157575c8.30858156-4.84994906 13.43341875-13.77529969 13.43341875-23.39588718 0-9.62041875-5.12483719-18.54576937-13.43341875-23.39571844l-249.96449344-144.06851063a27.09160875 27.09160875 0 0 0-13.54496063-3.62923593c-14.83654781 0-27.054315 12.18857437-27.08975156 27.02512218v80.65366875H216.70508c-33.77515875 0-61.56774094-27.79275094-61.56774094-61.56774093v-115.13165813c0-33.77499-27.79275094-61.56774094-61.56774187-61.56774094-33.77499 0-61.56774094 27.79275094-61.56774094 61.56774094v115.13165813c0 101.32513969 83.37808406 184.7033925 184.7033925 184.7033925h492.54125531z"  horiz-adv-x="1053" />

    
    <glyph glyph-name="no-loop" unicode="&#58955;" d="M339.80917531 2.0317106300000205v-68.33515969 0.11964187c0.09129188-0.90414469 0.13702219-1.81217063 0.13702219-2.72087156 0-14.85376031-12.22282969-27.07659-27.07675781-27.07659a27.08199 27.08199 0 0 0-17.34041156 6.28108969L45.55441063 53.13344343999995l6.76168031-1.22678813-0.14967844 0.05990438c-8.54786437 4.77991875-13.86136031 13.83908625-13.86136031 23.63263875 0 9.84232031 5.3664825 18.93911719 13.98100125 23.69929312l246.29425218 144.68865563-0.11964093-0.05990532a27.0796275 27.0796275 0 0 0 14.27141437 4.06645782c14.85291656 0 27.07524-12.22131094 27.07675875-27.07422657v-95.74097437h129.34013063a307.81558781 307.81558781 0 0 1 55.39296187-123.14678813h0.01704281l0.56850844-0.7779225-0.58555125 0.7779225h-184.7337675z m431.04320625-61.57347938c-135.11261719 0-246.29425219 111.18096-246.29425219 246.29425219 0 135.11261719 111.18112875 246.29425219 246.29425219 246.29425218 135.11278594 0 246.29425219-111.18112875 246.29425219-246.29425218 0-135.11278594-111.18096-246.29425219-246.29425219-246.29425219z m-136.37568656 317.26574156c-11.20258781-21.29414625-17.55775687-45.46424344-17.55775688-71.00253843 0-84.44540719 69.48803625-153.93344344 153.93344344-153.93344344 25.538295 0 49.70839125 6.35533875 71.00253844 17.55792562l-207.3778875 207.3778875z m272.70986156-142.083375c11.22806813 21.31304625 17.59909969 45.51132375 17.59909969 71.08083657 0 84.44557594-69.48803625 153.93361219-153.93361219 153.93361218-25.56951281 0-49.76779031-6.37103156-71.08083656-17.59909968l207.41501156-207.41501157z m-197.90782218 625.24197563V836.89286719C709.30269688 851.73009 721.51810156 863.92575188 736.35532437 863.92575188a27.07878375 27.07878375 0 0 0 13.55339813-3.63615469l249.9746175-144.06041063v0.62841188l0.11964094-0.05990438c8.22285844-4.88403563 13.27884656-13.76753719 13.2788475-23.33142562 0-9.6131625-5.10813187-18.53530688-13.39848844-23.40213094l-249.9746175-144.06024188 0.11964094 0.05973563a27.07878375 27.07878375 0 0 0-13.67303907-3.70584562c-14.82962906 0-27.04165969 12.18317438-27.07659 27.01280343v68.3650275H216.69073625c-33.76182844 0-61.54361062-27.78161344-61.54361062-61.54344187v-115.18835719c0-33.76182844-27.78161344-61.54361062-61.54344094-61.54360969h-0.05990531c-33.76165969 0-61.54344187 27.78178219-61.54344188 61.54360969v115.15848844c0 101.33458969 83.38567781 184.7202675 184.7202675 184.7202675h492.55812938z"  horiz-adv-x="1053" />

    
    <glyph glyph-name="mini" unicode="&#59299;" d="M940.888 859.88799999H329.328a48 48 0 0 1-48-48v-177.64H99.112a48 48 0 0 1-48-48V-38.400000009999985a48 48 0 0 1 48-48H723.76a48 48 0 0 1 48 48V152.31999999000004h169.136a48 48 0 0 1 48 48V811.88799999a48 48 0 0 1-48.008 48zM675.76 9.599999990000015H147.112V538.2479999899999H675.76V9.599999990000015z m217.128 238.72H771.76V586.2479999899999a48 48 0 0 1-48 48H377.328V763.88799999h515.56V248.31999999000004z"  horiz-adv-x="1024" />

    
    <glyph glyph-name="fullscreen" unicode="&#58948;" d="M735.45428572 784.00000031h158.35999969c16.68 0 12.6 4.06000031 12.6-12.62000062v-158.35999969a40.00000031 40.00000031 0 1 1 80.00000062 0V771.40000031c0 60.85999969-31.74 92.62000031-92.60000062 92.61999938h-158.35999969a40.00000031 40.00000031 0 1 1 0-79.99999969z m170.98000031-431.60000062a40.00000031 40.00000031 0 1 0 79.99999969 0v-345.43999969c0-60.16000031-31.5-91.68-91.68-91.68H549.29428541a40.00000031 40.00000031 0 1 0 0 79.99999969h345.46000031c16.00000031 0 11.68000031-4.30000031 11.68000031 11.68000031V352.42000031zM89.43428572 735.73999969a40.00000031 40.00000031 0 1 0 56.56000031 56.56000031l310.26-310.26a40.00000031 40.00000031 0 1 0-56.56000031-56.56000031L89.43428572 735.72z m199.26-740.43999938H130.31428541c-16.68 0-12.61999969-4.06000031-12.61999969 12.61999969v158.35999969a40.00000031 40.00000031 0 1 1-79.99999969 0v-158.35999969c0-60.85999969 31.75999969-92.59999969 92.61999938-92.59999969h158.36000062a40.00000031 40.00000031 0 1 1 0 79.99999969zM117.71428541 426.88000031a40.00000031 40.00000031 0 1 0-79.99999969 0V772.3199999999999C37.71428572 832.5 69.21428572 864 129.39428572 864h345.43999969a40.00000031 40.00000031 0 1 0 0-79.99999969H129.39428572C113.39428541 784.00000031 117.71428541 788.32000031 117.71428541 772.3199999999999v-345.43999969z m443.30000062-162.76000031a40.00000031 40.00000031 0 1 0 56.58 56.58l310.26-310.26a40.00000031 40.00000031 0 0 0-56.58-56.58L561.01428603 264.12z"  horiz-adv-x="1024" />

    
    <glyph glyph-name="pic" unicode="&#59125;" d="M368 416c-62.4 0-112 49.6-112 112s49.6 112 112 112 112-49.6 112-112-49.6-112-112-112z m0 160c-27.2 0-48-20.8-48-48s20.8-48 48-48 48 20.8 48 48-20.8 48-48 48z m464-608H192c-52.8 0-96 43.2-96 96V704c0 52.8 43.2 96 96 96h640c52.8 0 96-43.2 96-96v-640c0-52.8-43.2-96-96-96zM192 736c-17.6 0-32-14.4-32-32v-640c0-17.6 14.4-32 32-32h640c17.6 0 32 14.4 32 32V704c0 17.6-14.4 32-32 32H192z m259.2-556.8c-25.6 0-51.2 11.2-70.4 30.4l-38.4 40c-12.8 12.8-33.6 12.8-46.4 0l-49.6-52.8c-12.8-12.8-32-12.8-44.8-1.6s-12.8 32-1.6 44.8l49.6 52.8c17.6 19.2 43.2 30.4 68.8 30.4s51.2-11.2 70.4-30.4l38.4-40c12.8-12.8 33.6-12.8 46.4 0l160 168c17.6 19.2 43.2 30.4 70.4 30.4s51.2-11.2 70.4-30.4L920 267.20000000000005c12.8-12.8 11.2-33.6-1.6-44.8-12.8-12.8-33.6-11.2-44.8 1.6L728 377.6c-12.8 12.8-33.6 12.8-46.4 0L521.6 208c-19.2-17.6-44.8-28.8-70.4-28.8z"  horiz-adv-x="1024" />

    
    <glyph glyph-name="gif" unicode="&#59130;" d="M960 64c-8 0-16 3.2-22.4 9.6l-96 94.4c-12.8 12.8-12.8 32 0 44.8 12.8 12.8 32 12.8 44.8 0l41.6-40v424l-41.6-40c-12.8-12.8-33.6-12.8-44.8 0-12.8 12.8-12.8 33.6 0 44.8l96 94.4c9.6 9.6 22.4 11.2 35.2 6.4 11.2-4.8 19.2-16 19.2-28.8v-576c0-12.8-8-24-19.2-28.8-4.8-3.2-8-4.8-12.8-4.8z m-288-32H128c-52.8 0-96 43.2-96 96V640c0 52.8 43.2 96 96 96h544c52.8 0 96-43.2 96-96v-512c0-52.8-43.2-96-96-96zM128 672c-17.6 0-32-14.4-32-32v-512c0-17.6 14.4-32 32-32h544c17.6 0 32 14.4 32 32V640c0 17.6-14.4 32-32 32H128z"  horiz-adv-x="1024" />

    
    <glyph glyph-name="shangchuan" unicode="&#58927;" d="M511.98720031 584.09599969c11.25120001 0 20.736-3.86560031 28.44159938-11.60319938l160.00000032-160.01920032c7.6608-7.6032 11.5392-17.0688 11.53919999-28.40959968 0-11.06560031-3.936-20.53120031-11.72479969-28.26880031-7.86559969-7.87200001-17.26720031-11.7312-28.3072003-11.73120001-10.82239969 0-20.3328 3.7312003-28.43520001 11.59680001L551.93600001 447.53920031v-503.53280062c0-11.07199969-3.90400031-20.40319969-11.7247997-28.26879938-7.84000031-7.87200001-17.23519969-11.73760031-28.27520062-11.73760031s-20.49919969 3.86560031-28.30719938 11.73760031c-7.78879969 7.86559969-11.72479969 17.19679969-11.72480062 28.26879938V447.53920031L380.33919969 355.6608c-8.08960031-7.86559969-17.568-11.5968-28.4352-11.59680001-11.04 0-20.46720001 3.86560031-28.28799939 11.73120001-7.78240031 7.7376-11.71200001 17.2032-11.71199999 28.26880031 0 10.80319969 3.84640031 20.27520001 11.53279969 28.4095997l159.9744 160.0192003c7.71840001 7.7376 17.21599969 11.60320031 28.44160031 11.60319938h0.12799969zM231.99999969 864h559.9872c33.09439969 0 61.40160001-11.60320031 84.8448-35.07199969C900.28800031 805.4592 912.00000031 777.19039968 912.00000031 743.9808v-559.93600031c0-33.21600001-11.71840031-61.47839999-35.16160032-84.95359969-23.4432-23.33440031-51.75040031-35.07199969-84.84479999-35.07199969H632.0192v80.01279938h159.9744c11.04 0 20.44159968 3.86560031 28.30720031 11.73760031 7.78879969 7.87200001 11.72479969 17.2032 11.72479969 28.26880031V744.1152c0 11.07199969-3.936 20.40319969-11.72479969 28.27519969-7.86559969 7.86559969-17.26720031 11.7312-28.30720031 11.7312H232.0064c-11.04 0-20.46720001-3.86560031-28.25599969-11.7312-7.87200001-7.87200001-11.77600031-17.2032-11.77600031-28.27519969v-560.07679969c0-11.07199969 3.90400031-20.40319969 11.77600031-28.26880031 7.78879969-7.87200001 17.21599969-11.73760031 28.25599969-11.73760031h159.9744v-80.01279938H232.0064c-33.12640031 0-61.4208 11.73760031-84.84479999 35.07199969C123.71199969 122.56639969000003 111.99999969 150.8352 111.99999969 184.03840031000004V743.9808C111.99999969 777.19039968 123.7184 805.4592 147.16159999 828.92800031 170.58559998 852.39679969 198.87999969 864 231.99999969 864z"  horiz-adv-x="1024" />

    
    <glyph glyph-name="xiazai" unicode="&#58936;" d="M512.0192 863.87200031c11.04 0 20.44159968-3.87199969 28.29439969-11.73760032 7.80160031-7.87200001 11.72479969-17.2032 11.72480062-28.26880029v-503.33439939l91.57759969 91.872c7.68 7.73119969 17.15200031 11.4624 28.416 11.4624 11.44960031 0 20.97280031-3.7312003 28.59520031-11.328 7.61599969-7.6032 11.39200031-17.2032 11.39199938-28.67200031 0-11.20000031-3.82720031-20.66560031-11.5392-28.39680001l-159.98079938-160.0000003c-7.70560031-7.6032-17.17120031-11.46880031-28.45439998-11.46879938-11.27680031 0-20.74879969 3.86560031-28.45440002 11.46879938l-159.9552 160.00000032c-7.73119969 8.12800031-11.55839999 17.59999969-11.5584 28.39679999 0 11.07199969 3.89119969 20.53759969 11.74399969 28.40320031 7.78879969 7.73119969 17.22880032 11.7312 28.26880031 11.7312 11.28319969 0 20.74879969-3.86560031 28.44159938-11.60320031l91.55200031-91.86559969V823.99999969c0 10.93120031 3.89760001 20.40319969 11.7504 28.26880031C491.63520031 859.99999969 501.05599999 864 512.10240031 864l-0.08320031-0.12799969z m119.99359969-160.00000031h160.00000031c33.11359969 0 61.3951997-11.60320031 84.82560001-35.07199969 23.4432-23.46880031 35.16160031-51.73120031 35.1616003-84.92800032v-559.872c0-33.20320032-11.71840031-61.46560032-35.1616003-84.9280003-23.424-23.34079969-51.71200031-35.07199969-84.83200032-35.07199969h-559.99999969c-33.10720031 0-61.40160001 11.7312-84.84480001 35.07199969C123.7184-37.47199968999996 111.99999969-9.203200310000057 111.99999969 23.999999989999992V583.87200001c0 33.1968 11.71840031 61.4592 35.16160032 84.9280003s51.73759969 35.07199969 84.84479999 35.07199969h159.98080031v-79.99999969H232.0064c-11.04 0-20.45440031-3.87199969-28.30720031-11.60320031-7.78879969-7.99999969-11.72479969-17.3376-11.72479969-28.40320031v-559.99999969c0-10.93120031 3.936-20.39680031 11.72479969-28.13440031 7.8528-7.99999969 17.26720031-11.86560001 28.30720031-11.8656h559.99999969c11.04 0 20.46720001 3.86560031 28.26880031 11.8656 7.8528 7.7376 11.7504 17.2032 11.7504 28.13440031v559.99999969c0 11.07199969-3.89760001 20.40319969-11.7504 28.40320031-7.80160031 7.73119969-17.22880032 11.5968-28.26880031 11.5968H632.01279969v79.99999968z"  horiz-adv-x="1024" />

    
    <glyph glyph-name="pause" unicode="&#59039;" d="M194.2693293 864m110.42718938 0l-0.01502157 0q110.42719031 0 110.42718938-110.42719031l0-739.14561938q0-110.42719031-110.42718938-110.42719031l0.01502157 0q-110.42719031 0-110.42718938 110.42719031l0 739.14561938q0 110.42719031 110.42718938 110.42719031ZM613.42997149 864m110.42718937 0l-0.01502156 0q110.42719031 0 110.42718937-110.42719031l1e-8-739.14561938q0-110.42719031-110.42718938-110.42719031l0.01502156 0q-110.42719031 0-110.42718937 110.42719031l0 739.14561938q0 110.42719031 110.42718937 110.42719031Z"  horiz-adv-x="1024" />

    
    <glyph glyph-name="play" unicode="&#58888;" d="M874.9 324.9L217.4-54.799999999999955C171.8-81 115-48.200000000000045 115 4.399999999999977V763.6c0 52.5 56.9 85.4 102.4 59.1l657.5-379.6c45.5-26.3 45.5-91.9 0-118.2z"  horiz-adv-x="1024" />

    
    <glyph glyph-name="config" unicode="&#59066;" d="M992.63998437 252.96000000000004v-29.76c0-12-5.76-24-11.99999999-35.52-5.76-12-12-24-17.76-29.76-5.76-12-12-17.76-24-17.76-5.76-5.76-17.76-5.76-24-5.76s-12 0-17.76 5.76c-5.76 0-17.76 5.76-24 5.76h-29.76c-12 0-24-5.76-29.76-5.76-12-5.76-17.76-12-29.76-17.76-17.76-17.76-24-35.52-29.76-59.52 0-24 0-41.76 12-59.52 5.76-12 5.76-29.76-5.76-41.76l-17.76-17.76c-5.76-5.76-17.76-12-29.76-17.76s-24-5.76-35.52-12c-12 0-24-5.76-29.76-5.76-5.76 0-12 0-17.76 5.76-5.76 5.76-12 12-12 17.76-5.76 24-17.76 41.76-35.52 53.28-17.76 17.76-41.76 24-65.28 24-24 0-41.76-5.76-65.28-24-17.76-17.76-29.76-35.52-41.76-53.28-5.76-5.76-5.76-12-17.76-17.76 0-5.76-5.76-5.76-17.76-5.76s-17.76 0-29.76 5.76-24 5.76-35.52 12-24 12-29.76 17.76c-12 5.76-17.76 12-24 17.76-5.76 5.76-5.76 12-5.76 17.76 0 5.76 0 17.76 5.76 29.76 5.76 17.76 12 35.52 5.76 53.28 0 17.76-12 41.76-24 53.28-12 12-24 17.76-35.52 17.76-12 5.76-24 5.76-41.76 5.76-12 0-29.76-5.76-41.76-5.76h-29.76c-5.76 0-12 12-24 17.76-5.76 12-12 24-17.76 35.52-5.76 12-12 24-12 35.52s-5.76 24 0 29.76c0 17.76 5.76 24 17.76 29.76 29.76 5.76 47.52 24 65.28 41.76s24 41.76 24 59.52c0 24-5.76 47.52-24 59.52-17.76 24-35.52 35.52-53.28 41.76l-17.76 17.76c-5.76 5.76-5.76 17.76-5.76 24s0 17.76 5.76 29.76c0 12 5.76 24 12 29.76 5.76 12 12 17.76 17.76 29.76 0 5.76 5.76 12 12 17.76s12 5.76 17.76 5.76c5.76 0 12 0 17.76-5.76 17.76-5.76 41.76-12 59.52-5.76 24 5.76 41.76 12 59.52 29.76 5.76 5.76 12 17.76 17.76 29.76s5.76 24 5.76 35.52v29.76 17.76c0 5.76 0 5.76-5.76 12v12c5.76 17.76 17.76 24 24 35.52 12 5.76 24 12 35.52 17.76 12 5.76 24 5.76 35.52 12h29.76c5.76 0 12 0 17.76-5.76s5.76-12 12-17.76c5.76-24 17.76-35.52 35.52-53.28 17.76-12 35.52-24 59.52-24s47.52 5.76 65.28 17.76 29.76 29.76 41.76 53.28c0 5.76 5.76 12 12 17.76C635.03998438 859.2 641.27998437 859.2 647.03998438 859.2c12 0 17.76 0 29.76-5.76 12 0 24-5.76 35.52-12 12-5.76 24-12 29.76-17.76 5.76-5.76 12-12 17.76-24 5.76-5.76 5.76-12 5.76-17.76s0-12-5.76-12c-5.76-17.76-12-41.76-5.76-59.52 5.76-24 12-41.76 29.76-59.52 17.76-17.76 35.52-24 59.52-29.76 24 0 47.52 0 65.27999999 12 5.76 5.76 12 5.76 17.76000001 5.76s12-5.76 17.76-12c12-12 17.76-24 29.75999999-41.76 5.76-17.76 12-41.76 17.76-59.52 0-12 0-17.76-5.76-29.76-5.76-5.76-12-12-17.76-12-24-5.76-41.76-17.76-53.28-41.76-17.76-17.76-24-41.76-24-65.28 0-24 5.76-41.76 17.76-59.52s29.76-29.76 47.52-35.52c5.76 0 5.76-5.76 12-5.76 12.48-4.8 18.72-11.04 24.48-23.04z m-475.68-88.8c29.76 0 59.52 5.76 89.28000001 17.76 29.76 12 53.28 29.76 71.52 47.52s35.52 41.76 47.52 71.52c5.76 24 12 53.28 12 83.04s-5.76 59.52-17.76 89.28c-12 29.76-29.76 47.52-47.52 71.52-17.76 17.76-41.76 35.52-71.52 47.52-24 12-53.28 17.76-83.04 17.76-29.76 0-59.52-5.76-89.28-17.76-24-12-47.52-29.76-71.52-47.52-17.76-24-35.52-47.52-47.52-71.52-5.76-29.76-12-59.52-12-89.28s5.76-59.52 17.76-89.28c12-29.76 29.76-53.28 47.52-71.52 17.76-17.76 41.76-35.52 71.52-47.52 23.52-5.76 53.28-11.52 83.04-11.52z"  horiz-adv-x="1024" />

    
    <glyph glyph-name="palette" unicode="&#60372;" d="M512 827.84169313C266.9007543 827.84169313 68.15830687 629.0992457 68.15830687 384s198.74244741-443.84169313 443.84169313-443.84169313c40.93206687 0 73.97361552 33.04154865 73.97361552 73.97361553 0 19.23314003-7.15078322 36.49364994-19.23314004 49.56232239-11.58920015 13.06867246-18.49340389 30.08260403-18.49340388 49.06916458 0 40.93206687 33.04154865 73.97361552 73.97361553 73.97361552H709.26297511c136.11145256 0 246.57871802 110.46726545 246.57871802 246.57871918 0 217.97558745-198.74244741 394.52594905-443.84169313 394.52594906zM240.76340937 384c-40.93206687 0-73.97361552 33.04154865-73.97361551 73.97361552s33.04154865 73.97361552 73.97361551 73.97361551 73.97361552-33.04154865 73.97361552-73.97361551-33.04154865-73.97361552-73.97361552-73.97361552z m147.94723105 197.26297511c-40.93206687 0-73.97361552 33.04154865-73.97361553 73.97361552s33.04154865 73.97361552 73.97361553 73.97361551 73.97361552-33.04154865 73.97361551-73.97361551-33.04154865-73.97361552-73.97361551-73.97361552z m246.57871916 0c-40.93206687 0-73.97361552 33.04154865-73.97361551 73.97361552s33.04154865 73.97361552 73.97361551 73.97361551 73.97361552-33.04154865 73.97361553-73.97361551-33.04154865-73.97361552-73.97361553-73.97361552z m147.94723105-197.26297511c-40.93206687 0-73.97361552 33.04154865-73.97361552 73.97361552s33.04154865 73.97361552 73.97361552 73.97361551 73.97361552-33.04154865 73.97361551-73.97361551-33.04154865-73.97361552-73.97361551-73.97361552z"  horiz-adv-x="1024" />

    
    <glyph glyph-name="xiayishou" unicode="&#58882;" d="M817 736h38c30.928 0 56-25.072 56-56v-593c0-30.928-25.072-56-56-56h-38c-30.928 0-56 25.072-56 56V680c0 30.928 25.072 56 56 56zM648.314 349.80899999999997l-422.304-303.4c-32.294-23.201-77.282-15.83-100.484 16.464A72 72 0 0 0 112 104.88300000000004V663.936c0 39.764 32.235 72 72 72a72 72 0 0 0 39.95-12.1l422.762-281.959c25.73-17.16 32.677-51.93 15.517-77.66a56 56 0 0 0-13.915-14.408z"  horiz-adv-x="1024" />

    
    <glyph glyph-name="wancheng" unicode="&#58889;" d="M512-96C247.3223525-96 32 119.32235249999997 32 384 32 648.6776475 247.3223525 864 512 864 776.6776475 864 992 648.6776475 992 384c0-264.6776475-215.3223525-480-480-480z m0 903.52941188C278.4376475 807.52941187 88.47058813 617.5623525 88.47058813 384 88.47058813 150.49411781000003 278.4376475-39.52941186999999 512-39.52941186999999S935.52941187 150.49411781000003 935.52941187 384C935.52941187 617.5623525 745.5623525 807.52941187 512 807.52941187z m-32.69647031-594.52235344a29.76 29.76 0 0 0-21.23294157-8.97882281h-0.16941187a30.21176437 30.21176437 0 0 0-21.23294063 8.75294062l-155.85882374 155.85882375a29.92941187 29.92941187 0 1 0 42.40941187 42.40941188l134.45647031-134.4 242.88 248.30117624a29.92941187 29.92941187 0 1 0 42.86117625-41.90117625l-264.11294062-270.04235343z"  horiz-adv-x="1024" />

    


  </font>
</defs>
</svg>
